<?xml version="1.0" encoding="UTF-8"?>
<svg width="756px" height="442px" viewBox="0 0 756 442" version="1.1" xmlns="http://www.w3.org/2000/svg" xmlns:xlink="http://www.w3.org/1999/xlink">
    <title>Combined Shape</title>
    <g id="Space-background" stroke="none" stroke-width="1" fill="none" fill-rule="evenodd" fill-opacity="0.2">
        <g id="Letter" transform="translate(-17.000000, -9.000000)" fill="#13132C">
            <path d="M654.328783,370.378858 C647.571944,372.426418 642.2845,377.713862 640.23694,384.470701 C636.932884,395.373908 642.869992,406.876687 653.546846,410.563257 L685.490131,410.562252 C696.656707,410.562252 705.709005,419.61455 705.709005,430.781126 C705.709005,441.947702 696.656707,451 685.490131,451 L104.506087,451 C93.3395109,451 84.2872126,441.947702 84.2872126,430.781126 C84.2872126,419.61455 93.3395109,410.562252 104.506087,410.562252 L135.123972,410.562971 C145.744734,406.843321 151.639646,395.37424 148.344791,384.501395 C146.297231,377.744556 141.009787,372.457112 134.252948,370.409552 L394.265281,370.409 L394.265559,370.378858 Z M752.303845,9 C763.470421,9 772.522719,18.0522983 772.522719,29.2188741 C772.522719,40.3854499 763.470421,49.4377481 752.303845,49.4377481 L591.393354,49.436831 C581.330883,52.8074273 575.314527,63.3565165 577.795606,73.8895871 C579.442868,80.8828043 584.568772,86.477545 591.275581,88.7760728 L663.333706,88.7757752 C674.500282,88.7757752 683.55258,97.8280735 683.55258,108.994649 C683.55258,120.161225 674.500282,129.213523 663.333706,129.213523 L500.898311,129.213046 C497.458438,131.476237 494.659668,134.614514 492.803495,138.326382 C487.277703,149.376543 491.28355,162.701245 501.70523,168.95146 L722.942627,168.950165 C734.658379,168.950165 744.155872,178.447658 744.155872,190.16341 C744.155872,201.879161 734.658379,211.376655 722.942627,211.376655 L608.096085,211.375659 C603.831114,213.994732 600.578774,218.067963 599.001463,222.925598 C595.823383,232.713113 600.127442,243.134514 608.758536,248.000492 L630.906236,248.000916 C643.354222,248.000916 653.445309,258.092003 653.445309,270.539989 C653.445309,282.987975 643.354222,293.079062 630.906236,293.079062 L545.662907,293.079734 C540.812961,295.835536 537.192296,300.467167 535.759587,306.015953 C533.253709,315.721049 537.998028,325.594627 546.61376,329.905753 L678.564694,329.905513 C689.731269,329.905513 698.783568,338.957811 698.783568,350.124387 C698.783568,361.290963 689.731269,370.343261 678.564694,370.343261 L110.511969,370.343261 C99.3453936,370.343261 90.2930954,361.290963 90.2930954,350.124387 C90.2930954,338.957811 99.3453936,329.905513 110.511969,329.905513 L239.940155,329.905125 C249.683052,326.134726 255.273196,315.580089 252.597561,305.217535 C251.295145,300.173364 248.184631,295.88712 243.986207,293.078988 L157.294746,293.079062 C144.84676,293.079062 134.755673,282.987975 134.755673,270.539989 C134.755673,258.092003 144.84676,248.000916 157.294746,248.000916 L182.366963,248.000767 C189.586409,242.728543 192.952987,233.231558 190.041936,224.266414 C188.16252,218.478388 183.904986,213.804017 178.389895,211.376308 L65.6409946,211.376655 C53.925243,211.376655 44.4277497,201.879161 44.4277497,190.16341 C44.4277497,178.447658 53.925243,168.950165 65.6409946,168.950165 L286.464773,168.950718 C297.133899,163.363321 301.525105,150.277316 296.26063,139.343005 C294.168844,134.998366 290.736607,131.449573 286.480348,129.213055 L126.890877,129.213523 C115.724301,129.213523 106.672003,120.161225 106.672003,108.994649 C106.672003,97.8280735 115.724301,88.7757752 126.890877,88.7757752 L197.442456,88.7761229 C207.344101,85.6139072 213.479471,75.4320502 211.359505,65.0130482 C209.850745,57.5979381 204.424518,51.6634252 197.307982,49.4366683 L37.6961549,49.4377481 C26.5295791,49.4377481 17.4772808,40.3854499 17.4772808,29.2188741 C17.4772808,18.0522983 26.5295791,9 37.6961549,9 L752.303845,9 Z" id="Combined-Shape"></path>
        </g>
    </g>
</svg>